<svg width="1286" height="183" viewBox="0 0 1286 183" fill="none" xmlns="http://www.w3.org/2000/svg">
<path fill-rule="evenodd" clip-rule="evenodd" d="M2 114C2 51.0395 53.0395 0 116 0C141.226 0 164.538 8.19335 183.42 22.064L78 72L211.023 50.9964C223.014 69.0453 230 90.7068 230 114V180H27.3333L154 120L2 138V114Z" fill="white"/>
<path d="M1283.81 180.114H1240.8L1205.04 129.574H1155.31V96.7776H1205.04L1241.33 45.9694H1284.35L1234.88 110.488L1283.81 180.114ZM1171.71 180.114H1135.15V0H1171.71V180.114Z" fill="white"/>
<path d="M1044.91 182.802C1029.86 182.802 1016.69 179.934 1005.4 174.199C994.105 168.464 985.413 160.31 979.319 149.736C973.226 139.162 970.179 126.886 970.179 112.907C970.179 98.7488 973.226 86.4724 979.319 76.0777C985.413 65.6831 994.105 57.6183 1005.4 51.8833C1016.69 46.1484 1029.86 43.2809 1044.91 43.2809C1059.07 43.2809 1071.53 45.7003 1082.28 50.5392C1093.03 55.1989 1101.46 61.8299 1107.55 70.4324C1113.64 78.8556 1116.69 88.8918 1116.69 100.541V103.767H1080.13V101.885C1080.13 92.745 1076.99 86.2035 1070.72 82.2607C1064.45 78.1387 1055.67 76.0777 1044.38 76.0777C1031.29 76.0777 1021.7 78.9452 1015.61 84.6802C1009.52 90.4151 1006.47 99.8241 1006.47 112.907C1006.47 125.99 1009.52 135.399 1015.61 141.134C1021.7 146.869 1031.29 149.736 1044.38 149.736C1055.67 149.736 1064.45 147.765 1070.72 143.822C1076.99 139.879 1080.13 133.338 1080.13 124.198V122.047H1116.69V125.542C1116.69 136.833 1113.64 146.779 1107.55 155.382C1101.46 163.984 1093.03 170.705 1082.28 175.544C1071.53 180.382 1059.07 182.802 1044.91 182.802Z" fill="white"/>
<path d="M954.788 180.114H920.916V147.317L918.765 146.779V100.003C918.765 90.5047 916.435 84.0529 911.776 80.6478C907.116 77.0634 899.051 75.2712 887.581 75.2712C876.649 75.2712 868.674 77.0634 863.656 80.6478C858.638 84.0529 856.129 89.8775 856.129 98.1215V99.4656H819.568V98.3903C819.568 87.6373 822.436 78.1387 828.171 69.8947C833.906 61.4715 842.06 54.93 852.634 50.2704C863.208 45.6107 875.753 43.2809 890.27 43.2809C904.965 43.2809 917.063 45.7003 926.561 50.5392C936.239 55.1989 943.318 61.8299 947.798 70.4324C952.458 78.8556 954.788 88.8022 954.788 100.272V180.114ZM862.849 182.802C848.512 182.802 837.221 179.666 828.977 173.393C820.733 166.941 816.611 158.159 816.611 147.048C816.611 140.238 818.314 134.413 821.719 129.574C825.124 124.735 830.052 120.882 836.504 118.015C842.956 115.147 850.842 113.265 860.161 112.369L921.453 105.917V126.886L870.108 132.8C864.373 133.338 860.161 134.503 857.473 136.295C854.784 138.087 853.44 140.955 853.44 144.897C853.44 149.019 855.053 152.066 858.279 154.037C861.505 155.83 866.434 156.726 873.065 156.726C882.922 156.726 891.166 155.74 897.797 153.769C904.607 151.618 909.804 148.302 913.389 143.822C916.973 139.342 918.765 133.338 918.765 125.811H922.529V148.392H918.765C915.539 159.145 909.177 167.568 899.678 173.662C890.18 179.755 877.903 182.802 862.849 182.802Z" fill="white"/>
<path d="M627.167 182.802C604.944 182.802 587.828 178.59 575.821 170.167C563.813 161.744 557.809 149.826 557.809 134.413V133.338H594.37V135.757C594.37 142.747 596.789 147.496 601.628 150.005C606.646 152.335 615.249 153.5 627.436 153.5C639.085 153.5 646.791 152.424 650.555 150.274C654.497 148.123 656.469 144.718 656.469 140.058C656.469 135.757 654.945 132.711 651.899 130.918C648.852 129.126 643.117 127.692 634.694 126.617L597.327 122.047C584.065 120.434 573.76 116.671 566.412 110.756C559.243 104.842 555.659 96.2397 555.659 84.949C555.659 76.8842 557.989 69.8051 562.648 63.7117C567.308 57.4391 574.477 52.5106 584.154 48.9262C593.832 45.1627 606.019 43.2809 620.715 43.2809C635.231 43.2809 647.508 45.0731 657.544 48.6574C667.58 52.2418 675.287 57.7079 680.663 65.0558C686.04 72.2245 688.728 81.1854 688.728 91.9385V93.0138H652.168V91.4008C652.168 87.0996 651.271 83.5153 649.479 80.6478C647.866 77.7803 644.64 75.6297 639.802 74.1959C635.142 72.7622 628.421 72.0453 619.64 72.0453C608.886 72.0453 601.539 73.2102 597.596 75.5401C593.653 77.6907 591.682 81.2751 591.682 86.2931C591.682 90.2359 593.205 93.193 596.252 95.1644C599.298 97.1358 605.481 98.6592 614.801 99.7345L644.103 103.498C661.308 105.649 673.674 109.771 681.201 115.864C688.728 121.957 692.492 130.56 692.492 141.671C692.492 150.095 689.803 157.353 684.427 163.446C679.229 169.54 671.792 174.289 662.114 177.694C652.436 181.099 640.787 182.802 627.167 182.802Z" fill="white"/>
<path d="M537.733 180.114H501.173V45.9694H537.733V180.114ZM537.733 31.4527H501.173V0H537.733V31.4527Z" fill="white"/>
<path d="M477.243 180.114H440.682V0H477.243V180.114ZM342.56 180.114H306V0H342.56V180.114ZM459.231 105.918H316.753V73.1208H459.231V105.918Z" fill="white"/>
<path d="M802.052 180.12H769.524C754.47 180.12 742.552 176.446 733.77 169.098C724.989 161.571 720.598 149.384 720.598 132.538V18.5554H757.158V129.043C757.158 136.212 758.771 141.051 761.997 143.56C765.223 145.89 770.51 147.054 777.858 147.054H802.052V180.12ZM802.052 76.0842H698.823V45.9757H802.052V76.0842Z" fill="white"/>
</svg>
